AmstelvarA2-Italic_XDOT23.ufo
<glyph name="exclam" format="2">
  <advance width="604"/>
  <unicode hex="0021"/>
  <guideline x="293" y="769" angle="79.0"/>
  <outline>
    <contour>
      <point x="124" y="19" type="qcurve" smooth="yes"/>
      <point x="124" y="28"/>
      <point x="137" y="42"/>
      <point x="147" y="42" type="qcurve" smooth="yes"/>
      <point x="157" y="42"/>
      <point x="170" y="28"/>
      <point x="170" y="19" type="qcurve" smooth="yes"/>
      <point x="170" y="10"/>
      <point x="157" y="-4"/>
      <point x="147" y="-4" type="qcurve"/>
      <point x="137" y="-4"/>
      <point x="124" y="10"/>
    </contour>
    <contour>
      <point x="316" y="1375" type="line" smooth="yes"/>
      <point x="328" y="1460"/>
      <point x="378" y="1570"/>
      <point x="441" y="1570" type="qcurve" smooth="yes"/>
      <point x="503" y="1570"/>
      <point x="526" y="1455"/>
      <point x="505" y="1376" type="qcurve" smooth="yes"/>
      <point x="435" y="1108" type="line"/>
      <point x="356" y="800" type="line"/>
      <point x="272" y="435" type="line"/>
      <point x="180" y="450" type="line"/>
      <point x="236" y="800" type="line"/>
      <point x="279" y="1108" type="line"/>
    </contour>
  </outline>
</glyph>
<glyph name="comma" format="2">
  <advance width="355"/>
  <unicode hex="002C"/>
  <outline>
    <contour>
      <point x="-20" y="-195" type="line"/>
      <point x="21" y="-164"/>
      <point x="134" y="-49"/>
      <point x="154" y="13" type="qcurve"/>
      <point x="141" y="6"/>
      <point x="118" y="16"/>
      <point x="118" y="30" type="qcurve" smooth="yes"/>
      <point x="118" y="39"/>
      <point x="130" y="52"/>
      <point x="140" y="52" type="qcurve" smooth="yes"/>
      <point x="149" y="52"/>
      <point x="162" y="40"/>
      <point x="162" y="28" type="qcurve" smooth="yes"/>
      <point x="162" y="-35"/>
      <point x="86" y="-214"/>
      <point x="29" y="-254" type="qcurve"/>
    </contour>
  </outline>
</glyph>
<glyph name="period" format="2">
	<unicode hex="002E"/>
	<advance width="352"/>
	<outline>
		<contour>
			<point x="-13" y="19" type="qcurve" smooth="yes"/>
			<point x="-13" y="28"/>
			<point x="0" y="42"/>
			<point x="10" y="42" type="qcurve" smooth="yes"/>
			<point x="20" y="42"/>
			<point x="33" y="28"/>
			<point x="33" y="19" type="qcurve" smooth="yes"/>
			<point x="33" y="10"/>
			<point x="20" y="-4"/>
			<point x="10" y="-4" type="qcurve"/>
			<point x="0" y="-4"/>
			<point x="-13" y="10"/>
		</contour>
	</outline>
</glyph>
<glyph name="periodcentered" format="2">
	<unicode hex="00B7"/>
	<advance width="356"/>
	<outline>
		<contour>
			<point x="163" y="674" type="qcurve" smooth="yes"/>
			<point x="163" y="683"/>
			<point x="176" y="697"/>
			<point x="186" y="697" type="qcurve" smooth="yes"/>
			<point x="196" y="697"/>
			<point x="209" y="683"/>
			<point x="209" y="674" type="qcurve" smooth="yes"/>
			<point x="209" y="665"/>
			<point x="196" y="651"/>
			<point x="186" y="651" type="qcurve"/>
			<point x="176" y="651"/>
			<point x="163" y="665"/>
		</contour>
	</outline>
</glyph>
<glyph name="dotaccentcomb" format="2">
  <unicode hex="0307"/>
  <guideline x="52" y="1428" angle="90.0" identifier="KUivbH17zw"/>
  <anchor x="0.0" y="1000" name="_top"/>
  <anchor x="73.0" y="1372.0" name="top"/>
  <outline>
    <contour>
      <point x="1" y="1269" type="qcurve" smooth="yes"/>
      <point x="1" y="1292"/>
      <point x="27" y="1318"/>
      <point x="52" y="1318" type="qcurve" smooth="yes"/>
      <point x="75" y="1318"/>
      <point x="103" y="1291"/>
      <point x="103" y="1269" type="qcurve" smooth="yes"/>
      <point x="103" y="1245"/>
      <point x="76" y="1219"/>
      <point x="52" y="1219" type="qcurve" smooth="yes"/>
      <point x="29" y="1219"/>
      <point x="1" y="1246"/>
    </contour>
  </outline>
</glyph>
<glyph name="dotbelowcomb" format="2">
	<unicode hex="0323"/>
	<outline>
		<contour>
			<point x="-322" y="-282" type="qcurve" smooth="yes"/>
			<point x="-322" y="-259"/>
			<point x="-296" y="-233"/>
			<point x="-271" y="-233" type="qcurve" smooth="yes"/>
			<point x="-248" y="-233"/>
			<point x="-220" y="-260"/>
			<point x="-220" y="-282" type="qcurve" smooth="yes"/>
			<point x="-220" y="-306"/>
			<point x="-247" y="-332"/>
			<point x="-271" y="-332" type="qcurve" smooth="yes"/>
			<point x="-294" y="-332"/>
			<point x="-322" y="-305"/>
		</contour>
	</outline>
	<anchor name="_bottom" x="-194" y="0"/>
	<anchor name="bottom" x="-194" y="-422"/>
	<guideline x="-271" y="-149" angle="90" identifier="VtdczZYCTN"/>
</glyph>
<glyph name="dieresisbelowcomb" format="2">
	<unicode hex="0324"/>
	<outline>
		<contour>
			<point x="-516" y="-303" type="qcurve" smooth="yes"/>
			<point x="-516" y="-280"/>
			<point x="-490" y="-254"/>
			<point x="-465" y="-254" type="qcurve" smooth="yes"/>
			<point x="-442" y="-254"/>
			<point x="-414" y="-281"/>
			<point x="-414" y="-303" type="qcurve" smooth="yes"/>
			<point x="-414" y="-327"/>
			<point x="-441" y="-353"/>
			<point x="-465" y="-353" type="qcurve" smooth="yes"/>
			<point x="-488" y="-353"/>
			<point x="-516" y="-326"/>
		</contour>
		<contour>
			<point x="-96" y="-303" type="qcurve" smooth="yes"/>
			<point x="-96" y="-280"/>
			<point x="-70" y="-254"/>
			<point x="-45" y="-254" type="qcurve" smooth="yes"/>
			<point x="-22" y="-254"/>
			<point x="6" y="-281"/>
			<point x="6" y="-303" type="qcurve" smooth="yes"/>
			<point x="6" y="-327"/>
			<point x="-21" y="-353"/>
			<point x="-45" y="-353" type="qcurve" smooth="yes"/>
			<point x="-68" y="-353"/>
			<point x="-96" y="-326"/>
		</contour>
	</outline>
	<anchor name="_bottom" x="-194" y="0"/>
	<anchor name="bottom" x="-280" y="-441"/>
	<guideline x="-45" y="-227" angle="90" identifier="26q0ayXX2g"/>
</glyph>
<glyph name="commaaccentcomb" format="2">
  <unicode hex="0326"/>
  <guideline x="-271" y="-81" angle="90.0" identifier="SsoqVkWwFc"/>
  <anchor x="-194.0" y="0" name="_bottom"/>
  <anchor x="-330.0" y="-700.0" name="bottom"/>
  <outline>
    <contour>
      <point x="-462" y="-531" type="line"/>
      <point x="-400" y="-496"/>
      <point x="-287" y="-386"/>
      <point x="-257" y="-298" type="qcurve"/>
      <point x="-270" y="-305"/>
      <point x="-293" y="-295"/>
      <point x="-293" y="-281" type="qcurve" smooth="yes"/>
      <point x="-293" y="-272"/>
      <point x="-281" y="-259"/>
      <point x="-271" y="-259" type="qcurve" smooth="yes"/>
      <point x="-262" y="-259"/>
      <point x="-249" y="-271"/>
      <point x="-249" y="-283" type="qcurve" smooth="yes"/>
      <point x="-249" y="-353"/>
      <point x="-353" y="-536"/>
      <point x="-416" y="-587" type="qcurve"/>
    </contour>
  </outline>
</glyph>
<glyph name="quoteright" format="2">
	<unicode hex="2019"/>
	<advance width="341"/>
	<outline>
		<contour>
			<point x="134" y="1280" type="line"/>
			<point x="177" y="1311"/>
			<point x="294" y="1432"/>
			<point x="318" y="1506" type="qcurve"/>
			<point x="305" y="1499"/>
			<point x="282" y="1509"/>
			<point x="282" y="1523" type="qcurve" smooth="yes"/>
			<point x="282" y="1532"/>
			<point x="294" y="1545"/>
			<point x="304" y="1545" type="qcurve" smooth="yes"/>
			<point x="313" y="1545"/>
			<point x="326" y="1533"/>
			<point x="326" y="1521" type="qcurve" smooth="yes"/>
			<point x="326" y="1453"/>
			<point x="246" y="1261"/>
			<point x="185" y="1218" type="qcurve"/>
		</contour>
	</outline>
</glyph>
<glyph name="quotesinglbase" format="2">
  <advance width="341"/>
  <unicode hex="201A"/>
  <outline>
    <contour>
      <point x="-96" y="-213" type="line"/>
      <point x="-53" y="-182"/>
      <point x="64" y="-61"/>
      <point x="88" y="13" type="qcurve"/>
      <point x="75" y="6"/>
      <point x="52" y="16"/>
      <point x="52" y="30" type="qcurve" smooth="yes"/>
      <point x="52" y="39"/>
      <point x="64" y="52"/>
      <point x="74" y="52" type="qcurve" smooth="yes"/>
      <point x="83" y="52"/>
      <point x="96" y="40"/>
      <point x="96" y="28" type="qcurve" smooth="yes"/>
      <point x="96" y="-40"/>
      <point x="16" y="-232"/>
      <point x="-45" y="-275" type="qcurve"/>
    </contour>
  </outline>
</glyph>
<glyph name="quotedblright" format="2">
	<unicode hex="201D"/>
	<advance width="738"/>
	<outline>
		<contour>
			<point x="511" y="1280" type="line"/>
			<point x="554" y="1311"/>
			<point x="671" y="1432"/>
			<point x="695" y="1506" type="qcurve"/>
			<point x="682" y="1499"/>
			<point x="659" y="1509"/>
			<point x="659" y="1523" type="qcurve" smooth="yes"/>
			<point x="659" y="1532"/>
			<point x="671" y="1545"/>
			<point x="681" y="1545" type="qcurve" smooth="yes"/>
			<point x="690" y="1545"/>
			<point x="703" y="1533"/>
			<point x="703" y="1521" type="qcurve" smooth="yes"/>
			<point x="703" y="1453"/>
			<point x="623" y="1261"/>
			<point x="562" y="1218" type="qcurve"/>
		</contour>
		<contour>
			<point x="229" y="1280" type="line"/>
			<point x="272" y="1311"/>
			<point x="389" y="1432"/>
			<point x="413" y="1506" type="qcurve"/>
			<point x="400" y="1499"/>
			<point x="377" y="1509"/>
			<point x="377" y="1523" type="qcurve" smooth="yes"/>
			<point x="377" y="1532"/>
			<point x="389" y="1545"/>
			<point x="399" y="1545" type="qcurve" smooth="yes"/>
			<point x="408" y="1545"/>
			<point x="421" y="1533"/>
			<point x="421" y="1521" type="qcurve" smooth="yes"/>
			<point x="421" y="1453"/>
			<point x="341" y="1261"/>
			<point x="280" y="1218" type="qcurve"/>
		</contour>
	</outline>
</glyph>
<glyph name="bullet" format="2">
  <advance width="547"/>
  <unicode hex="2022"/>
  <outline>
    <contour>
      <point x="132" y="892" type="qcurve" smooth="yes"/>
      <point x="132" y="960"/>
      <point x="227" y="1061"/>
      <point x="303" y="1061" type="qcurve" smooth="yes"/>
      <point x="375" y="1061"/>
      <point x="471" y="960"/>
      <point x="471" y="892" type="qcurve" smooth="yes"/>
      <point x="471" y="825"/>
      <point x="375" y="724"/>
      <point x="303" y="724" type="qcurve" smooth="yes"/>
      <point x="227" y="724"/>
      <point x="132" y="825"/>
    </contour>
  </outline>
</glyph>
<glyph name="commercialMinusSign" format="2">
  <advance width="840"/>
  <unicode hex="2052"/>
  <outline>
    <contour>
      <point x="0" y="-2" type="line"/>
      <point x="733" y="1538" type="line"/>
      <point x="870" y="1487" type="line"/>
      <point x="137" y="-53" type="line"/>
    </contour>
    <contour>
      <point x="567" y="33" type="qcurve" smooth="yes"/>
      <point x="567" y="55"/>
      <point x="598" y="88"/>
      <point x="622" y="88" type="qcurve" smooth="yes"/>
      <point x="646" y="88"/>
      <point x="678" y="55"/>
      <point x="678" y="33" type="qcurve" smooth="yes"/>
      <point x="678" y="11"/>
      <point x="646" y="-22"/>
      <point x="622" y="-22" type="qcurve" smooth="yes"/>
      <point x="598" y="-22"/>
      <point x="567" y="11"/>
    </contour>
    <contour>
      <point x="167" y="1463" type="qcurve" smooth="yes"/>
      <point x="167" y="1485"/>
      <point x="198" y="1518"/>
      <point x="222" y="1518" type="qcurve" smooth="yes"/>
      <point x="246" y="1518"/>
      <point x="278" y="1485"/>
      <point x="278" y="1463" type="qcurve" smooth="yes"/>
      <point x="278" y="1441"/>
      <point x="246" y="1408"/>
      <point x="222" y="1408" type="qcurve" smooth="yes"/>
      <point x="198" y="1408"/>
      <point x="167" y="1441"/>
    </contour>
  </outline>
</glyph>
<glyph name="bulletoperator" format="2">
	<unicode hex="2219"/>
	<advance width="1024"/>
	<outline>
		<contour>
			<point x="509" y="644" type="qcurve" smooth="yes"/>
			<point x="509" y="653"/>
			<point x="522" y="667"/>
			<point x="532" y="667" type="qcurve" smooth="yes"/>
			<point x="542" y="667"/>
			<point x="555" y="653"/>
			<point x="555" y="644" type="qcurve" smooth="yes"/>
			<point x="555" y="635"/>
			<point x="542" y="621"/>
			<point x="532" y="621" type="qcurve"/>
			<point x="522" y="621"/>
			<point x="509" y="635"/>
		</contour>
	</outline>
	<guideline x="532" y="748" angle="90" identifier="EKHN5SbMgg"/>
</glyph>
<glyph name="commaaccentcomb.case" format="2">
	<outline>
		<contour>
			<point x="-394" y="-428" type="line"/>
			<point x="-354" y="-398"/>
			<point x="-246" y="-280"/>
			<point x="-233" y="-226" type="qcurve"/>
			<point x="-247" y="-226"/>
			<point x="-265" y="-209"/>
			<point x="-265" y="-195" type="qcurve" smooth="yes"/>
			<point x="-265" y="-182"/>
			<point x="-246" y="-163"/>
			<point x="-232" y="-163" type="qcurve" smooth="yes"/>
			<point x="-219" y="-163"/>
			<point x="-199" y="-180"/>
			<point x="-199" y="-197" type="qcurve" smooth="yes"/>
			<point x="-199" y="-225"/>
			<point x="-274" y="-422"/>
			<point x="-341" y="-490" type="qcurve"/>
		</contour>
	</outline>
	<anchor name="_bottom" x="-184" y="50"/>
	<anchor name="bottom" x="-330" y="-700"/>
	<guideline x="-232" y="-147" angle="90" identifier="SsLAfodnn3"/>
</glyph>
<glyph name="commaaccentturnedcomb" format="2">
  <guideline x="40" y="1250" angle="90.0" identifier="2KHEbi2JwJ"/>
  <anchor x="0.0" y="1000" name="_top"/>
  <anchor x="114.0" y="1585.0" name="top"/>
  <outline>
    <contour>
      <point x="231" y="1587" type="line"/>
      <point x="169" y="1552"/>
      <point x="56" y="1442"/>
      <point x="26" y="1354" type="qcurve"/>
      <point x="39" y="1361"/>
      <point x="62" y="1351"/>
      <point x="62" y="1337" type="qcurve" smooth="yes"/>
      <point x="62" y="1328"/>
      <point x="50" y="1315"/>
      <point x="40" y="1315" type="qcurve" smooth="yes"/>
      <point x="31" y="1315"/>
      <point x="18" y="1327"/>
      <point x="18" y="1339" type="qcurve" smooth="yes"/>
      <point x="18" y="1409"/>
      <point x="122" y="1592"/>
      <point x="185" y="1643" type="qcurve"/>
    </contour>
  </outline>
</glyph>
<glyph name="dieresisbelowcomb.case" format="2">
	<outline>
		<contour>
			<point x="-462" y="-264" type="qcurve" smooth="yes"/>
			<point x="-462" y="-241"/>
			<point x="-436" y="-215"/>
			<point x="-411" y="-215" type="qcurve" smooth="yes"/>
			<point x="-388" y="-215"/>
			<point x="-360" y="-242"/>
			<point x="-360" y="-264" type="qcurve" smooth="yes"/>
			<point x="-360" y="-288"/>
			<point x="-387" y="-314"/>
			<point x="-411" y="-314" type="qcurve" smooth="yes"/>
			<point x="-434" y="-314"/>
			<point x="-462" y="-287"/>
		</contour>
		<contour>
			<point x="-131" y="-264" type="qcurve" smooth="yes"/>
			<point x="-131" y="-241"/>
			<point x="-105" y="-215"/>
			<point x="-80" y="-215" type="qcurve" smooth="yes"/>
			<point x="-57" y="-215"/>
			<point x="-29" y="-242"/>
			<point x="-29" y="-264" type="qcurve" smooth="yes"/>
			<point x="-29" y="-288"/>
			<point x="-56" y="-314"/>
			<point x="-80" y="-314" type="qcurve" smooth="yes"/>
			<point x="-103" y="-314"/>
			<point x="-131" y="-287"/>
		</contour>
	</outline>
	<anchor name="_bottom" x="-195" y="0"/>
	<anchor name="bottom" x="-279" y="-441"/>
</glyph>
<glyph name="dieresiscomb-stack.case" format="2">
  <anchor x="195.0" y="1500" name="_top"/>
  <anchor x="273.0" y="1901" name="top"/>
  <outline>
    <contour>
      <point x="44" y="1727" type="qcurve" smooth="yes"/>
      <point x="44" y="1750"/>
      <point x="70" y="1776"/>
      <point x="95" y="1776" type="qcurve" smooth="yes"/>
      <point x="118" y="1776"/>
      <point x="146" y="1749"/>
      <point x="146" y="1727" type="qcurve" smooth="yes"/>
      <point x="146" y="1703"/>
      <point x="119" y="1677"/>
      <point x="95" y="1677" type="qcurve" smooth="yes"/>
      <point x="72" y="1677"/>
      <point x="44" y="1704"/>
    </contour>
    <contour>
      <point x="375" y="1727" type="qcurve" smooth="yes"/>
      <point x="375" y="1750"/>
      <point x="401" y="1776"/>
      <point x="426" y="1776" type="qcurve" smooth="yes"/>
      <point x="449" y="1776"/>
      <point x="477" y="1749"/>
      <point x="477" y="1727" type="qcurve" smooth="yes"/>
      <point x="477" y="1703"/>
      <point x="450" y="1677"/>
      <point x="426" y="1677" type="qcurve" smooth="yes"/>
      <point x="403" y="1677"/>
      <point x="375" y="1704"/>
    </contour>
  </outline>
</glyph>
<glyph name="dieresiscomb-stack" format="2">
	<outline>
		<contour>
			<point x="329" y="1233" type="qcurve" smooth="yes"/>
			<point x="329" y="1256"/>
			<point x="355" y="1282"/>
			<point x="380" y="1282" type="qcurve" smooth="yes"/>
			<point x="403" y="1282"/>
			<point x="431" y="1255"/>
			<point x="431" y="1233" type="qcurve" smooth="yes"/>
			<point x="431" y="1209"/>
			<point x="404" y="1183"/>
			<point x="380" y="1183" type="qcurve" smooth="yes"/>
			<point x="357" y="1183"/>
			<point x="329" y="1210"/>
		</contour>
		<contour>
			<point x="-131" y="1233" type="qcurve" smooth="yes"/>
			<point x="-131" y="1256"/>
			<point x="-105" y="1282"/>
			<point x="-80" y="1282" type="qcurve" smooth="yes"/>
			<point x="-57" y="1282"/>
			<point x="-29" y="1255"/>
			<point x="-29" y="1233" type="qcurve" smooth="yes"/>
			<point x="-29" y="1209"/>
			<point x="-56" y="1183"/>
			<point x="-80" y="1183" type="qcurve" smooth="yes"/>
			<point x="-103" y="1183"/>
			<point x="-131" y="1210"/>
		</contour>
	</outline>
	<anchor name="_top" x="108" y="1053"/>
	<anchor name="top" x="170" y="1372"/>
</glyph>
<glyph name="dieresistonoscomb" format="2">
  <anchor x="97.0" y="1000" name="_GRKtop"/>
  <outline>
    <contour>
      <point x="-83" y="1163" type="qcurve" smooth="yes"/>
      <point x="-106" y="1163"/>
      <point x="-135" y="1190"/>
      <point x="-135" y="1213" type="qcurve" smooth="yes"/>
      <point x="-135" y="1236"/>
      <point x="-109" y="1262"/>
      <point x="-84" y="1262" type="qcurve" smooth="yes"/>
      <point x="-61" y="1262"/>
      <point x="-32" y="1235"/>
      <point x="-33" y="1213" type="qcurve" smooth="yes"/>
      <point x="-33" y="1189"/>
      <point x="-59" y="1163"/>
    </contour>
    <contour>
      <point x="165" y="1145" type="line"/>
      <point x="82" y="1186" type="line"/>
      <point x="224" y="1587" type="line"/>
      <point x="388" y="1587" type="line"/>
      <point x="406" y="1551" type="line"/>
    </contour>
    <contour>
      <point x="377" y="1163" type="qcurve" smooth="yes"/>
      <point x="354" y="1163"/>
      <point x="325" y="1190"/>
      <point x="325" y="1213" type="qcurve" smooth="yes"/>
      <point x="325" y="1236"/>
      <point x="351" y="1262"/>
      <point x="376" y="1262" type="qcurve" smooth="yes"/>
      <point x="399" y="1262"/>
      <point x="428" y="1235"/>
      <point x="427" y="1213" type="qcurve" smooth="yes"/>
      <point x="427" y="1189"/>
      <point x="401" y="1163"/>
    </contour>
  </outline>
</glyph>
<glyph name="dotaccentcomb-stack.case" format="2">
  <guideline x="246" y="1791" angle="90.0" identifier="vS3cbZ6pFg"/>
  <anchor x="195.0" y="1500" name="_top"/>
  <anchor x="274.0" y="1910" name="top"/>
  <outline>
    <contour>
      <point x="195" y="1725" type="qcurve" smooth="yes"/>
      <point x="195" y="1748"/>
      <point x="221" y="1774"/>
      <point x="246" y="1774" type="qcurve" smooth="yes"/>
      <point x="269" y="1774"/>
      <point x="297" y="1747"/>
      <point x="297" y="1725" type="qcurve" smooth="yes"/>
      <point x="297" y="1701"/>
      <point x="270" y="1675"/>
      <point x="246" y="1675" type="qcurve" smooth="yes"/>
      <point x="223" y="1675"/>
      <point x="195" y="1702"/>
    </contour>
  </outline>
</glyph>
<glyph name="dotaccentcomb-stack" format="2">
  <guideline x="149" y="1341" angle="90.0" identifier="3ZKnGtEZ9X"/>
  <anchor x="170.0" y="1372.0" name="top"/>
  <anchor x="107.0" y="1052" name="_top"/>
  <outline>
    <contour>
      <point x="98" y="1254" type="qcurve" smooth="yes"/>
      <point x="98" y="1277"/>
      <point x="124" y="1303"/>
      <point x="149" y="1303" type="qcurve" smooth="yes"/>
      <point x="172" y="1303"/>
      <point x="200" y="1276"/>
      <point x="200" y="1254" type="qcurve" smooth="yes"/>
      <point x="200" y="1230"/>
      <point x="173" y="1204"/>
      <point x="149" y="1204" type="qcurve" smooth="yes"/>
      <point x="126" y="1204"/>
      <point x="98" y="1231"/>
    </contour>
  </outline>
</glyph>
<glyph name="dotaccentcomb.case" format="2">
	<outline>
		<contour>
			<point x="85" y="1766" type="qcurve" smooth="yes"/>
			<point x="85" y="1789"/>
			<point x="111" y="1815"/>
			<point x="136" y="1815" type="qcurve" smooth="yes"/>
			<point x="159" y="1815"/>
			<point x="187" y="1788"/>
			<point x="187" y="1766" type="qcurve" smooth="yes"/>
			<point x="187" y="1742"/>
			<point x="160" y="1716"/>
			<point x="136" y="1716" type="qcurve" smooth="yes"/>
			<point x="113" y="1716"/>
			<point x="85" y="1743"/>
		</contour>
	</outline>
	<anchor name="_top" x="98" y="1500"/>
	<anchor name="top" x="177" y="1910"/>
	<guideline x="136" y="1853" angle="90" identifier="yorHaWJWZk"/>
</glyph>
<glyph name="dotbelowcomb.case" format="2">
  <guideline x="-247" y="-106" angle="90.0" identifier="Teihzj1vmv"/>
  <anchor x="-194.0" y="0" name="_bottom"/>
  <anchor x="-278.0" y="-430.0" name="bottom"/>
  <outline>
    <contour>
      <point x="-298" y="-240" type="qcurve" smooth="yes"/>
      <point x="-298" y="-217"/>
      <point x="-272" y="-191"/>
      <point x="-247" y="-191" type="qcurve" smooth="yes"/>
      <point x="-224" y="-191"/>
      <point x="-196" y="-218"/>
      <point x="-196" y="-240" type="qcurve" smooth="yes"/>
      <point x="-196" y="-264"/>
      <point x="-223" y="-290"/>
      <point x="-247" y="-290" type="qcurve" smooth="yes"/>
      <point x="-270" y="-290"/>
      <point x="-298" y="-263"/>
    </contour>
  </outline>
</glyph>
<glyph name="idot" format="2">
  <anchor x="194" y="1000" name="top"/>
  <outline>
    <contour>
      <point x="212" y="1337" type="qcurve" smooth="yes"/>
      <point x="212" y="1360"/>
      <point x="238" y="1386"/>
      <point x="263" y="1386" type="qcurve" smooth="yes"/>
      <point x="286" y="1386"/>
      <point x="314" y="1359"/>
      <point x="314" y="1337" type="qcurve" smooth="yes"/>
      <point x="314" y="1313"/>
      <point x="287" y="1287"/>
      <point x="263" y="1287" type="qcurve" smooth="yes"/>
      <point x="240" y="1287"/>
      <point x="212" y="1314"/>
    </contour>
  </outline>
</glyph>
<glyph name="periodcentered-loclCAT.case" format="2">
	<advance width="584"/>
	<outline>
		<contour>
			<point x="275" y="667" type="qcurve" smooth="yes"/>
			<point x="275" y="676"/>
			<point x="288" y="690"/>
			<point x="298" y="690" type="qcurve" smooth="yes"/>
			<point x="308" y="690"/>
			<point x="321" y="676"/>
			<point x="321" y="667" type="qcurve" smooth="yes"/>
			<point x="321" y="658"/>
			<point x="308" y="644"/>
			<point x="298" y="644" type="qcurve"/>
			<point x="288" y="644"/>
			<point x="275" y="658"/>
		</contour>
	</outline>
	<anchor name="centerright" x="296" y="667"/>
	<guideline x="298" y="849" angle="90" identifier="D9Qqq9qRre"/>
</glyph>
<glyph name="periodcentered.loclCAT" format="2">
  <advance width="584"/>
  <guideline x="298" y="849" angle="90.0" identifier="D9Qqq9qRre"/>
  <anchor x="296" y="667" name="centerright"/>
  <outline>
    <contour>
      <point x="275" y="667" type="qcurve" smooth="yes"/>
      <point x="275" y="676"/>
      <point x="288" y="690"/>
      <point x="298" y="690" type="qcurve" smooth="yes"/>
      <point x="308" y="690"/>
      <point x="321" y="676"/>
      <point x="321" y="667" type="qcurve" smooth="yes"/>
      <point x="321" y="658"/>
      <point x="308" y="644"/>
      <point x="298" y="644" type="qcurve"/>
      <point x="288" y="644"/>
      <point x="275" y="658"/>
    </contour>
  </outline>
</glyph>
<glyph name="yi-dieresiscomb" format="2">
  <guideline x="212" y="1385" angle="90.0" identifier="3Kphf4fdGJ"/>
  <anchor x="0.0" y="1000" name="_top"/>
  <outline>
    <contour>
      <point x="161" y="1337" type="qcurve" smooth="yes"/>
      <point x="161" y="1360"/>
      <point x="187" y="1386"/>
      <point x="212" y="1386" type="qcurve" smooth="yes"/>
      <point x="235" y="1386"/>
      <point x="263" y="1359"/>
      <point x="263" y="1337" type="qcurve" smooth="yes"/>
      <point x="263" y="1313"/>
      <point x="236" y="1287"/>
      <point x="212" y="1287" type="qcurve" smooth="yes"/>
      <point x="189" y="1287"/>
      <point x="161" y="1314"/>
    </contour>
    <contour>
      <point x="-138" y="1337" type="qcurve" smooth="yes"/>
      <point x="-138" y="1360"/>
      <point x="-112" y="1386"/>
      <point x="-87" y="1386" type="qcurve" smooth="yes"/>
      <point x="-64" y="1386"/>
      <point x="-36" y="1359"/>
      <point x="-36" y="1337" type="qcurve" smooth="yes"/>
      <point x="-36" y="1313"/>
      <point x="-63" y="1287"/>
      <point x="-87" y="1287" type="qcurve" smooth="yes"/>
      <point x="-110" y="1287"/>
      <point x="-138" y="1314"/>
    </contour>
  </outline>
</glyph>
